<?xml version="1.0" standalone="no"?>
<!DOCTYPE svg PUBLIC "-//W3C//DTD SVG 20010904//EN"
 "http://www.w3.org/TR/2001/REC-SVG-20010904/DTD/svg10.dtd">
<svg version="1.0" xmlns="http://www.w3.org/2000/svg"
 width="700.000000pt" height="700.000000pt" viewBox="0 0 700.000000 700.000000"
 preserveAspectRatio="xMidYMid meet">
<metadata>
Created by potrace 1.11, written by Peter Selinger 2001-2013
</metadata>
<g transform="translate(0.000000,700.000000) scale(0.100000,-0.100000)"
fill="#000000" stroke="none">
<path d="M3487 6554 c-1 -1 -60 -4 -132 -7 -71 -4 -141 -9 -155 -11 -14 -3
-47 -7 -75 -11 -247 -31 -560 -148 -758 -282 l-78 -53 -47 24 c-57 29 -166 63
-230 72 -56 8 -204 8 -247 0 -16 -4 -46 -9 -65 -12 -35 -5 -87 -20 -190 -56
-95 -33 -277 -138 -365 -210 -11 -9 -40 -33 -65 -53 -97 -79 -262 -249 -386
-395 -377 -448 -629 -913 -682 -1260 -15 -99 -7 -281 17 -365 20 -72 81 -199
116 -243 117 -146 162 -189 265 -254 82 -52 208 -103 304 -122 13 -3 93 -16
121 -20 24 -3 26 -22 8 -91 -18 -72 -52 -274 -58 -347 -3 -35 -9 -101 -13
-148 -13 -146 -5 -488 14 -583 2 -12 6 -39 9 -62 10 -66 62 -265 90 -345 39
-107 135 -296 190 -374 231 -322 549 -553 956 -694 123 -43 401 -116 483 -127
27 -3 52 -8 55 -9 6 -4 74 -14 146 -22 22 -2 72 -9 110 -14 39 -5 117 -12 175
-16 58 -3 128 -8 155 -9 62 -5 609 -5 685 -1 113 6 275 18 290 21 8 2 44 6 80
10 54 5 246 35 325 50 335 63 673 192 910 349 325 214 542 486 671 842 33 93
77 264 89 350 3 22 7 48 10 59 24 115 24 566 0 730 -2 17 -9 66 -15 110 -6 44
-23 131 -36 193 -14 63 -23 117 -19 120 6 6 13 8 89 17 59 8 158 38 240 72
227 95 432 325 497 558 18 63 23 107 23 205 1 125 -2 151 -29 266 -115 497
-662 1271 -1156 1634 -350 258 -751 324 -1051 173 l-47 -24 -88 59 c-96 65
-260 146 -363 181 -36 12 -74 26 -85 31 -11 5 -31 11 -45 14 -14 3 -77 16
-141 29 -64 14 -145 28 -180 32 -58 6 -318 22 -322 19z m193 -438 c102 -8 133
-12 227 -32 40 -8 74 -15 75 -14 11 3 216 -74 273 -102 372 -185 642 -533 888
-1143 60 -149 87 -224 212 -585 53 -154 112 -315 125 -345 5 -11 30 -78 55
-150 26 -71 55 -150 65 -175 59 -146 145 -458 166 -600 3 -19 7 -42 9 -50 5
-17 13 -80 21 -160 12 -120 11 -429 -2 -535 -76 -627 -436 -1021 -1109 -1213
-63 -18 -188 -48 -240 -57 -136 -25 -244 -40 -350 -50 -33 -3 -74 -8 -90 -10
-17 -2 -89 -7 -161 -10 l-129 -6 0 437 0 437 72 38 c217 111 437 339 527 543
105 237 71 476 -87 623 -77 70 -207 131 -317 148 -25 4 -54 9 -65 11 -41 9
-234 18 -355 18 -397 -1 -589 -51 -727 -190 -70 -69 -108 -139 -127 -234 -15
-74 -11 -196 10 -269 19 -64 103 -241 116 -241 4 0 8 -5 8 -11 0 -33 202 -242
305 -315 38 -27 101 -65 140 -85 l70 -36 0 -437 1 -436 -126 5 c-69 3 -141 7
-160 10 -19 2 -64 7 -100 10 -72 7 -130 14 -172 21 -16 2 -43 6 -60 9 -18 3
-44 7 -58 10 -14 3 -41 7 -60 10 -125 20 -361 91 -500 150 -472 199 -751 544
-831 1025 -32 194 -32 600 1 755 5 22 11 62 15 89 3 27 13 79 21 115 9 36 18
76 20 88 12 61 94 308 189 568 59 160 141 387 182 505 181 516 255 703 366
920 79 155 98 186 187 313 230 328 495 510 870 596 99 23 138 28 275 37 55 4
101 7 102 8 4 3 141 -2 233 -8z m-1740 -257 c0 -3 -22 -35 -50 -72 -60 -80
-145 -210 -200 -308 -41 -74 -170 -335 -175 -354 -2 -10 -23 -59 -50 -120 -22
-51 -79 -208 -190 -525 -105 -301 -242 -675 -270 -737 -15 -34 -6 -33 -130
-19 -135 16 -229 59 -316 145 -93 93 -123 159 -124 270 0 103 7 145 45 262 86
261 307 614 581 927 274 312 485 469 703 520 75 18 176 24 176 11z m3356 -28
c194 -66 376 -206 610 -466 341 -380 585 -790 649 -1090 8 -33 12 -96 11 -141
-2 -66 -7 -92 -31 -140 -37 -77 -142 -182 -215 -216 -60 -28 -174 -55 -258
-61 -52 -4 -54 -3 -68 27 -18 42 -167 445 -214 581 -199 575 -265 745 -386
990 -92 186 -182 336 -275 459 -44 57 -57 81 -48 87 23 14 143 -2 225 -30z
m-1541 -3135 c80 -11 162 -34 180 -52 61 -62 -92 -307 -265 -424 -132 -89
-186 -94 -296 -28 -38 23 -74 46 -81 52 -126 117 -192 201 -225 288 -22 59
-23 92 -3 112 21 21 107 44 200 53 96 10 406 9 490 -1z"/>
<path d="M2717 4264 c-255 -66 -283 -420 -41 -531 139 -64 302 -1 364 141 96
216 -97 449 -323 390z"/>
<path d="M4123 4261 c-75 -25 -127 -72 -164 -146 -29 -59 -31 -71 -27 -137 9
-136 84 -229 212 -262 52 -14 68 -14 141 0 34 7 112 54 135 81 123 146 82 367
-83 447 -67 33 -147 40 -214 17z"/>
</g>
</svg>
